<?xml version="1.0" standalone="no"?>
<!DOCTYPE svg PUBLIC "-//W3C//DTD SVG 20010904//EN"
 "http://www.w3.org/TR/2001/REC-SVG-20010904/DTD/svg10.dtd">
<svg version="1.0" xmlns="http://www.w3.org/2000/svg"
 width="512.000000pt" height="512.000000pt" viewBox="0 0 512.000000 512.000000"
 preserveAspectRatio="xMidYMid meet">

<g transform="translate(0.000000,512.000000) scale(0.100000,-0.100000)"
fill="#000000" stroke="none">
<path d="M484 4505 c-59 -26 -253 -307 -345 -499 -100 -210 -134 -358 -134
-576 1 -176 13 -252 76 -453 71 -228 99 -391 124 -730 24 -336 35 -661 35
-1088 l0 -405 28 -28 c36 -34 92 -45 115 -22 28 29 30 125 11 596 -22 539 -24
989 -6 1100 22 129 27 138 100 160 78 24 203 26 287 5 173 -44 357 -187 505
-395 90 -126 148 -230 245 -435 292 -622 478 -907 676 -1035 137 -88 214 -99
684 -99 759 0 1301 29 1730 94 266 40 410 84 474 144 121 113 -130 274 -759
486 -173 58 -471 148 -585 176 -27 6 -72 18 -100 25 -27 8 -144 28 -260 44
-383 55 -467 91 -656 280 -133 132 -235 263 -449 575 -68 99 -149 214 -179
255 -88 119 -467 593 -675 845 -105 126 -268 324 -361 440 -182 223 -299 348
-408 434 -37 29 -67 57 -67 62 0 15 -47 59 -62 58 -7 0 -27 -7 -44 -14z m583
-773 c108 -136 240 -299 293 -362 253 -303 761 -952 970 -1240 240 -332 371
-484 486 -566 119 -85 217 -112 495 -139 163 -16 329 -43 329 -54 0 -10 -181
-127 -256 -164 -265 -132 -503 -119 -679 36 -156 138 -547 708 -1340 1952
-137 215 -308 481 -382 593 -73 112 -128 200 -122 197 5 -4 98 -118 206 -253z"/>
</g>
</svg>
